<svg width="1441" height="1192" viewBox="0 0 1441 1192" fill="none" xmlns="http://www.w3.org/2000/svg">
<g opacity="0.9">
<path opacity="0.02" d="M-1217.9 -165.1C-1223.42 -108.363 -1223.78 -47.3129 -1199.63 4.51241C-1188.84 27.7238 -1173.1 49.1201 -1150.65 67.5056C-1122.41 90.6316 -1086.51 106.156 -1047.56 116.854C-1013.44 126.228 -976.957 131.887 -941.162 135.666C-864.574 143.759 -785.651 145.404 -713.403 166.608C-641.127 187.812 -574.758 234.854 -568.687 293.79C-565.747 322.319 -576.928 350.719 -581.104 378.991C-583.191 393.063 -583.548 407.093 -579.565 421.101C-571.599 449.202 -546.49 472.798 -515.036 488.963C-503.389 494.942 -490.862 499.917 -478.006 503.697C-439.19 515.142 -397.791 517.448 -357.409 516.231C-348.344 515.954 -339.334 515.505 -330.406 514.95C-281.563 511.875 -233.489 505.661 -183.795 502.394C-156.681 500.643 -129.073 499.49 -101.135 499.917C-73.6644 500.301 -45.5618 502.479 -18.3933 506.942C32.5924 515.292 80.6661 531.883 116.543 560.732C119.51 563.102 122.339 565.579 125.059 568.142C162.749 603.61 176.896 655.606 157.09 697.31C151.705 708.606 143.849 719.176 133.3 728.465C104.978 753.406 58.2226 772.133 57.5633 805.552C56.9589 835.682 99.6209 857.014 137.695 855.776C175.797 854.58 209.559 838.009 242.496 822.805C313.425 789.963 390.646 760.538 473.58 753.321C481.436 752.637 489.321 752.189 497.26 751.975C573.189 749.883 651.645 769.144 700.79 813.111C750.65 857.697 766.061 922.1 823.447 961.156C836.578 970.103 850.753 977.086 865.752 982.509C960.828 1016.95 1089.06 989.321 1197.08 1010.14C1302.29 1030.43 1387.72 1103.11 1403.93 1186.65" stroke="url(#paint0_linear_398_390)" stroke-width="0.5" stroke-miterlimit="10"/>
<path opacity="0.05" d="M-1216.83 -167C-1221.77 -110.157 -1220.48 -49.4695 -1195.07 1.6938C-1183.73 24.6063 -1167.55 45.6396 -1144.8 63.6834C-1116.15 86.4037 -1080.02 101.629 -1040.93 112.113C-1006.65 121.317 -970.087 126.89 -934.21 130.648C-857.43 138.656 -778.341 140.386 -705.791 161.27C-633.213 182.153 -566.405 228.299 -558.466 286.188C-554.62 314.204 -564.537 342.135 -567.641 370.001C-569.207 383.86 -569.069 397.697 -564.729 411.513C-556.021 439.251 -530.693 462.698 -499.321 479.033C-487.701 485.098 -475.284 490.18 -462.565 494.13C-424.161 506.088 -383.614 509.291 -344.716 508.928C-335.98 508.843 -327.327 508.587 -318.784 508.202C-271.946 506.131 -226.4 500.857 -177.776 498.764C-151.24 497.654 -123.769 496.992 -95.8311 497.696C-68.3879 498.337 -40.2029 500.6 -12.9794 504.957C38.1436 513.135 86.5196 529.129 122.753 557.721C125.748 560.07 128.605 562.547 131.379 565.088C169.481 600.343 183.738 652.425 164.344 694.342C159.07 705.702 151.35 716.315 140.994 725.71C113.194 750.929 67.3175 770.083 66.5758 803.587C65.944 833.568 107.617 854.985 144.977 854.366C182.365 853.832 215.769 838.202 248.569 823.745C319.114 792.441 396.225 763.442 478.747 756.075C486.548 755.371 494.405 754.901 502.289 754.666C577.779 752.317 655.768 770.852 705.16 813.517C755.295 856.801 771.859 919.431 829.328 957.44C842.487 966.153 856.661 972.922 871.633 978.217C966.517 1011.72 1093.84 984.837 1201.2 1005.78C1305.84 1026.2 1390.94 1098.4 1407.17 1181.53" stroke="url(#paint1_linear_398_390)" stroke-width="0.5" stroke-miterlimit="10"/>
<path opacity="0.07" d="M-1215.79 -168.899C-1220.13 -111.949 -1217.19 -51.6038 -1190.57 -1.12379C-1178.7 21.4684 -1162.08 42.16 -1139.01 59.8836C-1109.94 82.1768 -1073.57 97.103 -1034.34 107.395C-999.923 116.428 -963.277 121.916 -927.29 125.631C-850.29 133.554 -771.064 135.39 -698.185 155.954C-625.305 176.517 -558.084 221.766 -548.249 278.609C-543.47 306.112 -552.123 333.595 -554.183 361.013C-555.227 374.658 -554.595 388.281 -549.925 401.926C-540.475 429.323 -514.927 452.599 -483.666 469.126C-472.073 475.255 -459.739 480.465 -447.185 484.608C-409.22 497.078 -369.498 501.178 -332.055 501.669C-323.649 501.776 -315.353 501.712 -307.166 501.52C-262.362 500.473 -219.315 496.117 -171.763 495.199C-145.803 494.751 -118.498 494.558 -90.5598 495.541C-63.1715 496.438 -34.8766 498.765 -7.5982 503.036C43.6622 511.022 92.3678 526.418 128.931 554.776C131.953 557.125 134.865 559.559 137.639 562.079C176.153 597.12 190.548 649.308 171.538 691.418C166.374 702.821 158.819 713.519 148.655 723C121.377 748.517 76.3523 768.077 75.5556 801.688C74.8963 831.498 115.58 852.851 152.226 853.022C188.927 853.193 221.975 838.523 254.61 824.75C324.88 795.09 401.771 766.433 483.881 758.895C491.627 758.191 499.456 757.699 507.286 757.422C582.336 754.817 659.831 772.626 709.525 813.988C759.934 855.948 777.652 916.848 835.231 953.79C848.417 962.246 862.592 968.844 877.536 973.991C972.255 1006.55 1098.62 980.418 1205.32 1001.47C1309.38 1022.01 1394.15 1093.7 1410.41 1176.42" stroke="url(#paint2_linear_398_390)" stroke-width="0.5" stroke-miterlimit="10"/>
<path opacity="0.1" d="M-1214.72 -170.801C-1218.48 -113.744 -1213.89 -53.7614 -1186.04 -3.94336C-1173.62 18.3498 -1156.56 38.6785 -1133.21 56.0818C-1103.76 77.9692 -1067.14 92.5751 -1027.75 102.675C-993.193 111.537 -956.437 116.94 -920.368 120.612C-843.148 128.471 -763.785 130.371 -690.603 150.614C-617.421 170.858 -549.788 215.209 -538.03 270.985C-532.344 297.976 -539.734 324.988 -540.723 351.979C-541.245 365.411 -540.146 378.842 -535.091 392.295C-524.927 419.329 -499.104 442.455 -467.953 459.175C-456.415 465.367 -444.163 470.706 -431.719 475.019C-394.166 488.002 -355.323 492.999 -319.336 494.323C-311.26 494.622 -303.32 494.728 -295.491 494.728C-252.719 494.686 -212.173 491.205 -165.692 491.525C-140.337 491.696 -113.168 492.017 -85.2029 493.276C-57.8421 494.43 -29.4374 496.842 -2.13147 501.006C49.2388 508.822 98.2741 523.62 135.195 551.7C138.244 554.028 141.183 556.44 143.985 558.96C182.939 593.767 197.416 646.062 178.818 688.385C173.764 699.852 166.347 710.592 156.375 720.18C129.618 745.975 85.4727 765.984 84.6211 799.659C83.9344 829.319 123.602 850.886 159.561 851.548C195.575 852.21 228.238 838.693 260.736 825.625C330.649 797.545 407.43 769.272 489.1 761.585C496.819 760.859 504.593 760.347 512.368 760.048C586.978 757.186 664.006 774.248 713.948 814.307C764.631 854.965 783.476 914.093 841.165 949.988C854.378 958.209 868.553 964.615 883.47 969.591C978.024 1001.22 1103.46 975.826 1209.49 996.988C1312.97 1017.66 1397.42 1088.85 1413.74 1171.17" stroke="url(#paint3_linear_398_390)" stroke-width="0.5" stroke-miterlimit="10"/>
<path opacity="0.12" d="M-1213.65 -172.702C-1216.83 -115.538 -1210.6 -55.8972 -1181.48 -6.76246C-1168.54 15.2318 -1151.01 35.1975 -1127.36 52.259C-1097.5 73.7408 -1060.66 88.0264 -1021.1 97.9345C-986.408 106.604 -949.57 111.942 -913.363 115.573C-835.951 123.345 -756.396 125.353 -682.939 145.254C-609.482 165.156 -541.382 208.632 -527.757 263.361C-521.136 289.861 -527.29 316.382 -527.18 342.946C-527.18 356.164 -525.587 369.382 -520.175 382.685C-509.269 409.356 -483.227 432.333 -452.158 449.245C-440.647 455.523 -428.478 460.989 -416.198 465.452C-379.058 478.948 -341.066 484.82 -306.535 487.019C-298.788 487.51 -291.207 487.809 -283.762 487.98C-242.995 488.941 -204.949 486.379 -159.567 487.895C-134.788 488.728 -107.757 489.539 -79.7919 491.055C-52.4585 492.465 -23.9714 494.942 3.41695 499.02C54.9245 506.643 104.289 520.844 141.54 548.689C144.616 550.995 147.583 553.386 150.44 555.885C189.806 590.478 204.393 642.858 186.207 685.395C181.262 696.904 173.983 707.731 164.203 717.425C137.969 743.498 94.6746 763.933 93.7681 797.694C93.0264 827.204 131.733 848.857 166.978 850.138C202.305 851.441 234.583 838.906 266.944 826.564C336.499 800.042 413.143 772.176 494.374 764.339C502.038 763.592 509.785 763.058 517.531 762.738C591.702 759.62 668.263 775.956 718.452 814.712C769.41 854.046 789.409 911.445 847.208 946.272C860.448 954.259 874.596 960.472 889.512 965.298C983.874 995.984 1108.37 971.341 1213.78 992.631C1316.68 1013.43 1400.8 1084.13 1417.14 1166.04" stroke="url(#paint4_linear_398_390)" stroke-width="0.5" stroke-miterlimit="10"/>
<path opacity="0.15" d="M-1212.6 -174.601C-1215.21 -117.351 -1207.3 -58.031 -1176.97 -9.5796C-1163.48 12.0944 -1145.52 31.7184 -1121.56 48.4596C-1091.32 69.5357 -1054.23 83.501 -1014.54 93.2169C-979.702 101.716 -942.782 106.969 -906.465 110.556C-828.833 118.243 -749.141 120.336 -675.382 139.917C-601.623 159.499 -533.111 202.078 -517.59 255.761C-510.063 281.748 -514.953 307.8 -513.772 333.937C-513.222 346.941 -511.162 359.967 -505.393 373.078C-493.773 399.407 -467.456 422.213 -436.524 439.317C-425.041 445.659 -412.981 451.253 -400.812 455.887C-364.084 469.895 -326.943 476.664 -293.896 479.718C-286.479 480.401 -279.254 480.892 -272.166 481.255C-233.433 483.241 -197.886 481.597 -153.603 484.288C-129.401 485.761 -102.535 487.106 -74.5421 488.857C-47.2362 490.566 -18.6667 493.085 8.7766 497.057C60.4216 504.509 110.089 518.112 147.696 545.701C150.8 547.986 153.795 550.356 156.679 552.854C196.457 587.212 211.181 639.721 193.38 682.471C188.545 694.044 181.403 704.935 171.815 714.715C146.103 741.065 103.688 761.928 102.726 795.773C101.957 825.135 139.675 846.851 174.178 848.773C208.818 850.695 240.712 839.185 272.935 827.569C342.134 802.628 418.64 775.167 499.459 767.159C507.095 766.412 514.787 765.835 522.479 765.494C596.211 762.12 672.277 777.708 722.768 815.184C774.001 853.193 795.153 908.841 853.034 942.622C866.303 950.352 880.45 956.374 895.339 961.072C989.536 990.818 1113.07 966.923 1217.82 988.319C1320.12 1009.25 1403.93 1079.44 1420.33 1160.94" stroke="url(#paint5_linear_398_390)" stroke-width="0.5" stroke-miterlimit="10"/>
<path opacity="0.17" d="M-1211.53 -176.502C-1213.53 -119.146 -1204 -60.1886 -1172.44 -12.3992C-1158.43 8.97583 -1140 28.2368 -1115.74 44.6578C-1085.08 65.3068 -1047.78 78.9731 -1007.92 88.4968C-972.918 96.8247 -935.915 101.992 -899.517 105.537C-821.692 113.139 -741.835 115.317 -667.774 134.578C-593.713 153.839 -524.761 195.521 -507.372 248.137C-498.939 273.612 -502.565 299.193 -500.312 324.924C-499.241 337.715 -496.686 350.527 -490.56 363.468C-478.198 389.434 -451.661 412.09 -420.812 429.386C-409.384 435.793 -397.379 441.515 -385.375 446.32C-349.086 460.84 -312.797 468.506 -281.178 472.414C-274.091 473.29 -267.223 473.973 -260.493 474.507C-223.792 477.496 -190.745 476.77 -147.533 480.678C-123.908 482.813 -97.2067 484.628 -69.1866 486.657C-41.9356 488.621 -13.2561 491.205 14.2421 495.092C66.0244 502.352 116.021 515.356 153.958 542.689C157.09 544.952 160.112 547.323 163.023 549.778C203.241 583.923 218.047 636.517 200.658 679.48C195.933 691.097 188.928 702.051 179.561 711.938C154.343 738.587 112.807 759.877 111.791 793.786C110.994 822.998 147.722 844.8 181.511 847.341C215.465 849.904 246.946 839.376 279.06 828.486C347.901 805.125 424.27 778.049 504.677 769.87C512.259 769.102 519.896 768.525 527.56 768.141C600.879 764.511 676.451 779.373 727.19 815.546C778.697 852.253 801.004 906.149 858.994 938.863C872.263 946.358 886.437 952.188 901.299 956.736C995.331 985.542 1117.93 962.395 1222.02 983.919C1323.74 1004.97 1407.23 1074.67 1423.66 1155.77" stroke="url(#paint6_linear_398_390)" stroke-width="0.5" stroke-miterlimit="10"/>
<path opacity="0.2" d="M-1210.46 -178.402C-1211.89 -120.939 -1200.71 -62.3234 -1167.88 -15.2173C-1153.32 5.83741 -1134.45 24.7568 -1109.89 40.8361C-1078.85 61.0793 -1041.27 74.4467 -1001.27 83.7355C-966.133 91.8926 -929.048 96.9534 -892.512 100.477C-814.467 108.015 -734.473 110.278 -660.109 129.219C-585.746 148.159 -516.383 188.924 -497.098 240.514C-487.731 265.476 -490.093 290.588 -486.797 315.892C-485.203 328.47 -482.182 341.09 -475.698 353.838C-462.595 379.441 -435.838 401.948 -405.071 419.436C-393.671 425.928 -381.776 431.757 -369.909 436.754C-334.032 451.787 -298.595 460.35 -268.459 465.09C-261.702 466.158 -255.164 467.012 -248.845 467.76C-214.15 471.774 -183.602 471.966 -141.49 477.048C-118.442 479.824 -91.905 482.152 -63.8574 484.437C-36.634 486.658 -7.84463 489.327 19.681 493.106C71.6007 500.174 121.9 512.602 160.221 539.679C163.38 541.921 166.457 544.27 169.396 546.725C210.026 580.656 224.97 633.336 207.965 676.513C203.35 688.172 196.483 699.212 187.307 709.184C162.611 736.111 121.955 757.828 120.856 791.823C120.032 820.885 155.771 842.772 188.846 845.954C222.113 849.136 253.21 839.612 285.186 829.448C353.67 807.646 429.901 780.996 509.896 772.647C517.451 771.857 525.032 771.259 532.642 770.853C605.522 766.967 680.627 781.082 731.612 815.973C783.395 851.356 806.827 903.502 864.928 935.169C878.224 942.43 892.399 948.067 907.233 952.466C1001.07 980.332 1122.74 957.932 1226.2 979.564C1327.34 1000.75 1410.5 1069.93 1426.95 1150.63" stroke="url(#paint7_linear_398_390)" stroke-width="0.5" stroke-miterlimit="10"/>
<path opacity="0.22" d="M-1209.41 -180.303C-1210.27 -122.733 -1197.41 -64.4592 -1163.37 -18.0364C-1148.29 2.7194 -1128.95 21.2757 -1104.09 37.0347C-1072.64 56.8723 -1034.84 69.9193 -994.704 79.016C-959.431 87.0022 -922.236 91.9777 -885.617 95.4583C-807.381 102.911 -727.221 105.26 -652.556 123.88C-577.89 142.5 -508.087 182.368 -486.907 232.912C-476.633 257.383 -477.732 282.025 -473.364 306.881C-471.249 319.245 -467.733 331.651 -460.893 344.228C-447.075 369.49 -420.044 391.826 -389.414 409.506C-378.041 416.062 -366.256 422.02 -354.498 427.187C-319.034 442.733 -284.448 452.171 -255.769 457.787C-249.34 459.047 -243.16 460.093 -237.198 461.011C-204.536 466.03 -176.488 467.161 -135.447 473.418C-112.976 476.856 -86.6039 479.653 -58.5563 482.216C-31.3602 484.714 -2.48856 487.447 25.092 491.12C77.1491 498.017 127.778 509.847 166.429 536.667C169.616 538.888 172.72 541.216 175.687 543.65C216.755 577.346 231.782 630.154 215.189 673.523C210.684 685.246 203.954 696.35 194.971 706.429C170.797 733.633 130.992 755.777 129.865 789.858C128.986 818.77 163.764 840.743 196.125 844.544C228.732 848.367 259.417 839.847 291.256 830.387C359.383 810.165 435.505 783.9 515.06 775.401C522.56 774.59 530.114 773.971 537.668 773.543C610.109 769.401 684.719 782.79 736.007 816.379C788.064 850.459 812.65 900.833 870.861 931.454C884.184 938.458 898.332 943.924 913.166 948.174C1006.84 975.101 1127.55 953.448 1230.34 975.186C1330.91 996.497 1413.74 1065.19 1430.25 1145.48" stroke="url(#paint8_linear_398_390)" stroke-width="0.5" stroke-miterlimit="10"/>
<path opacity="0.24" d="M-1208.34 -182.225C-1208.59 -124.548 -1194.11 -66.6373 -1158.84 -20.8764C-1143.21 -0.440996 -1123.43 17.7737 -1098.27 33.191C-1066.43 52.6015 -1028.38 65.3496 -988.083 74.2541C-952.673 82.0695 -915.395 86.9595 -878.667 90.3974C-800.21 97.7644 -719.913 100.22 -644.946 118.499C-569.978 136.778 -499.763 175.769 -476.688 225.246C-465.479 249.205 -465.342 273.377 -459.875 297.805C-457.238 309.934 -453.228 322.17 -446.03 334.555C-431.471 359.453 -404.22 381.64 -373.672 399.513C-362.354 406.154 -350.624 412.24 -339.032 417.557C-304.007 433.615 -270.245 443.95 -243.022 450.42C-236.923 451.872 -231.099 453.11 -225.495 454.221C-194.865 460.264 -169.29 462.292 -129.348 469.745C-107.454 473.823 -81.219 477.112 -53.1713 479.952C-26.0028 482.707 2.95131 485.504 30.5869 489.091C82.7812 495.796 133.712 507.028 172.72 533.614C175.934 535.813 179.066 538.119 182.088 540.554C223.569 574.036 238.705 626.929 222.525 670.512C218.13 682.278 211.564 693.446 202.746 703.631C179.094 731.114 140.168 753.706 138.959 787.872C138.052 816.635 171.841 838.693 203.488 843.113C235.409 847.576 265.709 840.039 297.41 831.305C365.18 812.642 441.164 786.804 520.307 778.134C527.779 777.323 535.279 776.682 542.778 776.213C614.779 771.792 688.923 784.455 740.458 816.763C792.79 849.52 818.53 898.163 876.823 927.695C890.173 934.464 904.321 939.739 919.1 943.817C1012.61 969.805 1132.38 948.899 1234.52 970.766C1334.48 992.226 1416.98 1060.41 1433.54 1140.27" stroke="url(#paint9_linear_398_390)" stroke-width="0.5" stroke-miterlimit="10"/>
<path opacity="0.27" d="M-1207.27 -184.126C-1206.94 -126.343 -1190.68 -68.8376 -1154.28 -23.696C-1138.07 -3.58087 -1117.88 14.3135 -1092.44 29.3891C-1060.19 48.3939 -1021.93 60.8217 -981.461 69.534C-945.914 77.1786 -908.554 81.9832 -871.715 85.3998C-793.039 92.6814 -712.577 95.2224 -637.335 113.181C-562.065 131.139 -491.411 169.234 -466.467 217.664C-454.353 241.111 -452.869 264.792 -446.414 288.815C-443.199 300.73 -438.777 312.773 -431.195 324.988C-415.921 349.523 -388.395 371.56 -357.958 389.625C-346.667 396.33 -335.047 402.544 -323.564 408.032C-288.951 424.602 -256.069 435.834 -230.301 443.137C-224.533 444.782 -219.066 446.212 -213.846 447.494C-185.222 454.54 -162.147 457.508 -123.303 466.135C-101.986 470.876 -75.9159 474.655 -47.8408 477.773C-20.7272 480.784 8.36426 483.667 36.0273 487.147C88.359 493.682 139.619 504.316 178.957 530.623C182.226 532.801 185.358 535.086 188.407 537.499C230.3 570.747 245.574 623.747 229.806 667.543C225.52 679.373 219.092 690.605 210.466 700.876C187.336 728.657 149.262 751.655 148.025 785.906C147.091 814.52 179.892 836.664 210.796 841.703C242.03 846.785 271.918 840.251 303.537 832.244C370.923 815.161 446.797 789.707 525.528 780.888C532.945 780.055 540.417 779.393 547.862 778.902C619.423 774.226 693.1 786.162 744.882 817.168C797.488 848.622 824.382 895.493 882.785 923.979C896.163 930.513 910.311 935.574 925.062 939.524C1018.38 964.572 1137.22 944.414 1238.7 966.387C1338.08 987.976 1420.25 1055.65 1436.87 1135.12" stroke="url(#paint10_linear_398_390)" stroke-width="0.5" stroke-miterlimit="10"/>
<path opacity="0.29" d="M-1206.23 -186.026C-1205.32 -128.136 -1187.41 -70.9938 -1149.77 -26.4928C-1133.02 -6.69795 -1112.39 10.8548 -1086.65 25.6101C-1054.01 44.2092 -1015.47 56.3167 -974.895 64.8368C-939.183 72.3105 -901.741 77.0297 -864.793 80.4036C-785.924 87.6211 -705.298 90.2263 -629.753 107.864C-554.181 125.502 -483.114 162.701 -456.275 210.084C-443.254 233.018 -440.507 256.23 -432.98 279.847C-429.244 291.548 -424.327 303.378 -416.388 315.422C-400.372 339.616 -372.627 361.482 -342.299 379.739C-331.036 386.508 -319.499 392.85 -308.181 398.509C-273.98 415.592 -241.949 427.721 -217.637 435.878C-212.17 437.714 -207.088 439.316 -202.226 440.789C-175.634 448.861 -155.059 452.747 -117.314 462.548C-96.5737 467.93 -70.6688 472.2 -42.5663 475.596C-15.4802 478.863 13.6938 481.81 41.4392 485.205C93.9083 491.547 145.471 501.583 185.166 527.656C188.462 529.812 191.622 532.076 194.698 534.489C237.031 567.523 252.387 620.629 237.031 664.618C232.855 676.491 226.564 687.808 218.158 698.165C195.55 726.223 158.355 749.648 157.036 783.985C156.075 812.449 187.886 834.679 218.076 840.337C248.623 846.06 278.127 840.508 309.608 833.226C376.637 817.702 452.374 792.676 530.693 783.686C538.082 782.832 545.499 782.148 552.917 781.636C624.038 776.703 697.22 787.914 749.305 817.617C802.186 847.747 830.206 892.888 888.746 920.307C902.152 926.585 916.299 931.475 931.024 935.275C1024.18 959.405 1142.08 939.973 1242.9 962.074C1341.71 983.791 1423.55 1050.97 1440.19 1130.02" stroke="url(#paint11_linear_398_390)" stroke-width="0.5" stroke-miterlimit="10"/>
<path opacity="0.32" d="M-1205.16 -187.926C-1203.65 -129.93 -1184.09 -73.1291 -1145.24 -29.3114C-1127.96 -9.8155 -1106.89 7.37419 -1080.82 21.7879C-1047.78 39.9599 -1009.02 51.7684 -968.277 60.0963C-932.427 67.3779 -894.902 72.033 -857.844 75.3642C-778.756 82.4963 -697.992 85.2082 -622.146 102.526C-546.271 119.844 -474.765 156.145 -446.058 202.461C-432.103 224.904 -428.12 247.645 -419.522 270.814C-415.264 282.302 -409.852 293.94 -401.583 305.791C-384.826 329.622 -356.861 351.339 -326.616 369.788C-315.408 376.643 -303.952 383.092 -292.744 388.943C-258.955 406.538 -227.776 419.542 -204.948 428.575C-199.811 430.603 -195.086 432.397 -190.581 434.063C-166.022 443.138 -147.918 447.964 -111.273 458.961C-91.109 465.004 -65.369 469.745 -37.239 473.418C-10.1803 476.941 19.076 479.973 46.8763 483.262C99.4828 489.433 151.375 498.871 191.4 524.688C194.724 526.823 197.938 529.087 201.042 531.457C243.787 564.277 259.253 617.469 244.308 661.671C240.243 673.608 234.089 684.968 225.876 695.453C203.762 723.789 167.445 747.662 166.072 782.063C165.055 810.378 195.933 832.693 225.381 838.971C255.269 845.334 284.333 840.786 315.705 834.209C382.349 820.244 457.976 795.623 535.883 786.462C543.217 785.608 550.607 784.903 557.969 784.369C628.651 779.18 701.366 789.644 753.698 818.065C806.854 846.893 836.028 890.262 894.65 916.634C908.056 922.677 922.204 927.375 936.928 931.026C1029.92 954.216 1146.86 935.532 1247.04 957.74C1345.28 979.584 1426.79 1046.25 1443.46 1124.92" stroke="url(#paint12_linear_398_390)" stroke-width="0.5" stroke-miterlimit="10"/>
<path opacity="0.34" d="M-1204.09 -189.826C-1202 -131.723 -1180.79 -75.2852 -1140.68 -32.1295C-1122.85 -12.9539 -1101.35 3.89414 -1074.97 17.9876C-1041.51 35.7538 -1002.53 47.2634 -961.629 55.3778C-925.642 62.4886 -888.008 67.0369 -850.867 70.3467C-771.587 77.3934 -690.658 80.1907 -614.509 97.1882C-538.333 114.186 -466.414 149.59 -435.785 194.86C-420.923 216.79 -415.648 239.062 -406.006 261.804C-401.226 273.078 -395.348 284.502 -386.694 296.183C-369.223 319.651 -340.983 341.218 -310.848 359.859C-299.667 366.778 -288.294 373.355 -277.251 379.377C-243.902 397.485 -213.574 411.386 -192.174 421.273C-187.367 423.493 -182.999 425.479 -178.878 427.316C-156.325 437.416 -140.721 443.16 -105.174 455.332C-85.5877 462.037 -60.0125 467.247 -31.855 471.197C-4.82385 474.977 24.5424 478.095 52.3702 481.276C105.114 487.255 157.308 496.096 197.69 521.656C201.042 523.77 204.283 526.012 207.415 528.361C250.572 560.947 266.175 614.245 251.615 658.682C247.66 670.662 241.644 682.107 233.622 692.678C212.03 721.291 176.593 745.592 175.164 780.078C174.12 808.243 204.009 830.643 232.743 837.541C261.944 844.545 290.624 840.979 321.858 835.128C388.117 822.721 463.662 798.506 541.129 789.196C548.437 788.32 555.744 787.594 563.078 787.039C633.321 781.594 705.569 791.331 758.148 818.45C811.579 845.954 841.906 887.594 900.639 912.898C914.072 918.706 928.219 923.211 942.916 926.713C1035.71 948.964 1151.72 931.027 1251.25 953.342C1348.88 975.314 1430.08 1041.49 1446.81 1119.75" stroke="url(#paint13_linear_398_390)" stroke-width="0.5" stroke-miterlimit="10"/>
<path opacity="0.37" d="M-1203.04 -191.726C-1200.38 -133.516 -1177.49 -77.42 -1136.18 -34.9476C-1117.83 -16.071 -1095.85 0.414044 -1069.18 14.1658C-1035.33 31.5263 -996.105 42.7156 -955.064 50.6165C-918.94 57.5564 -881.223 62.0193 -843.945 65.2864C-764.445 72.2477 -683.379 75.1518 -606.928 91.8077C-530.449 108.464 -458.091 142.971 -425.593 187.216C-409.825 208.633 -403.287 230.436 -392.546 252.75C-387.244 263.811 -380.871 275.043 -371.861 286.532C-353.647 309.658 -325.188 331.054 -295.162 349.888C-284.009 356.87 -272.746 363.597 -261.84 369.768C-228.903 388.388 -199.427 403.187 -179.511 413.906C-175.033 416.319 -170.995 418.497 -167.259 420.526C-146.738 431.63 -133.607 438.313 -99.1587 451.659C-80.1489 459.026 -54.711 464.728 -26.581 468.934C0.395249 472.97 29.8714 476.152 57.7542 479.248C110.608 485.056 163.159 493.299 203.898 518.603C207.277 520.696 210.546 522.916 213.705 525.265C257.301 557.637 272.987 611.043 258.84 655.672C254.994 667.716 249.115 679.204 241.286 689.881C220.216 718.793 185.63 743.5 184.147 778.071C183.076 806.066 211.975 828.594 239.995 836.089C268.537 843.734 296.777 841.15 327.901 836.025C393.776 825.177 469.21 801.389 546.238 791.908C553.491 791.011 560.77 790.264 568.05 789.688C637.881 783.986 709.607 792.976 762.488 818.793C816.193 844.972 847.675 884.861 906.489 909.119C919.95 914.671 934.098 918.984 948.767 922.358C1041.4 943.669 1156.47 926.479 1255.34 948.922C1352.39 971.023 1433.27 1036.69 1450.03 1114.54" stroke="url(#paint14_linear_398_390)" stroke-width="0.5" stroke-miterlimit="10"/>
<path opacity="0.39" d="M-1201.97 -193.627C-1198.7 -135.311 -1174.2 -79.5776 -1131.64 -37.7672C-1112.74 -19.2109 -1090.33 -3.06749 -1063.35 10.364C-1029.1 27.2974 -989.647 38.1878 -948.441 45.8964C-912.152 52.6655 -874.353 57.043 -836.993 60.2674C-757.273 67.1646 -676.042 70.1328 -599.288 86.4684C-522.508 102.804 -449.738 136.415 -415.344 179.613C-398.642 200.518 -390.868 221.85 -379.056 243.738C-373.204 254.586 -366.364 265.604 -356.997 276.922C-338.069 299.685 -309.335 320.931 -279.419 339.957C-268.321 347.026 -257.141 353.859 -246.345 360.201C-213.819 379.334 -185.195 395.029 -166.734 406.602C-162.586 409.207 -158.905 411.556 -155.526 413.777C-137.039 425.885 -126.407 433.529 -93.0305 448.028C-74.5976 456.057 -49.3245 462.229 -21.1671 466.713C5.78173 471.005 35.3402 474.272 63.2779 477.262C116.269 482.878 169.123 490.543 210.219 515.591C213.625 517.663 216.922 519.862 220.136 522.19C264.144 554.327 279.967 607.839 266.204 652.682C262.468 664.768 256.754 676.342 249.118 687.104C228.569 716.294 194.863 741.449 193.324 776.084C192.226 803.93 220.136 826.543 247.442 834.679C275.297 842.964 303.125 841.363 334.139 836.964C399.63 827.675 474.954 804.293 551.57 794.662C558.795 793.765 566.02 792.996 573.245 792.377C642.636 786.42 713.895 794.683 767.023 819.197C821.003 844.074 853.611 882.212 912.563 905.402C926.051 910.719 940.198 914.84 954.84 918.065C1047.28 938.436 1161.42 921.994 1259.66 944.543C1356.13 966.773 1436.68 1031.94 1453.49 1109.39" stroke="url(#paint15_linear_398_390)" stroke-width="0.5" stroke-miterlimit="10"/>
<path opacity="0.41" d="M-1200.9 -195.528C-1197.05 -137.105 -1170.9 -81.7134 -1127.08 -40.5863C-1107.66 -22.3289 -1084.78 -6.54854 -1057.53 6.5626C-1022.89 23.0903 -983.166 33.6604 -941.822 41.1768C-905.396 47.7751 -867.514 52.0672 -830.044 55.2489C-750.131 62.0607 -668.736 65.1357 -591.68 81.1295C-514.597 97.1448 -441.388 129.859 -405.127 171.989C-387.518 192.382 -378.453 213.245 -365.596 234.726C-359.223 245.36 -351.888 256.187 -342.191 267.333C-322.522 289.733 -293.568 310.831 -263.762 330.028C-252.692 337.16 -241.593 344.121 -230.962 350.634C-198.849 370.279 -171.104 386.85 -154.099 399.299C-150.281 402.096 -146.957 404.637 -143.962 407.05C-127.48 420.183 -119.349 428.746 -87.0705 444.419C-69.2146 453.11 -44.1063 459.751 -15.9214 464.513C10.9999 469.061 40.6408 472.392 68.6335 475.297C121.762 480.72 174.945 487.788 216.371 512.601C219.805 514.651 223.129 516.829 226.37 519.157C270.818 551.081 286.724 604.678 273.373 649.734C269.747 661.863 264.17 673.522 256.725 684.391C236.699 713.859 203.844 739.441 202.251 774.162C201.097 801.858 228.074 824.578 254.61 833.312C281.779 842.238 309.222 841.618 340.099 837.946C405.205 830.216 480.42 807.26 556.624 797.459C563.793 796.541 570.991 795.751 578.16 795.11C647.112 788.896 717.904 796.413 771.28 819.645C825.534 843.199 859.296 879.585 918.33 901.729C931.846 906.811 945.966 910.74 960.608 913.794C1052.88 933.225 1166.09 917.531 1263.64 940.208C1359.54 962.565 1439.75 1027.25 1456.59 1104.27" stroke="url(#paint16_linear_398_390)" stroke-width="0.5" stroke-miterlimit="10"/>
<path opacity="0.44" d="M-1199.85 -197.428C-1195.43 -138.898 -1167.6 -83.8695 -1122.58 -43.4044C-1102.61 -25.4673 -1079.29 -10.0286 -1051.73 2.74086C-1016.68 18.8629 -976.737 29.1126 -935.229 36.4369C-898.665 42.8644 -860.7 47.071 -823.12 50.21C-742.988 56.9364 -661.455 60.0967 -584.098 75.7917C-506.713 91.4866 -433.091 123.304 -394.934 164.388C-376.392 184.29 -366.09 204.661 -352.162 225.716C-345.267 236.136 -337.466 246.749 -327.384 257.725C-306.973 279.783 -277.799 300.71 -248.076 320.099C-237.033 327.316 -226.044 334.384 -215.523 341.089C-183.849 361.247 -156.928 378.714 -141.38 391.996C-137.891 394.986 -134.924 397.719 -132.287 400.303C-117.837 414.439 -112.178 423.963 -81.0264 440.811C-63.7473 450.164 -38.8038 457.275 -10.5914 462.314C16.3025 467.119 46.0533 470.535 74.0734 473.333C127.339 478.586 180.825 485.056 222.608 509.591C226.069 511.62 229.448 513.798 232.689 516.083C277.549 547.793 293.564 601.476 280.626 646.745C277.109 658.938 271.67 670.64 264.418 681.616C244.914 711.362 212.938 737.37 211.262 772.198C210.081 799.744 236.068 822.55 261.891 831.903C288.4 841.491 315.404 841.832 346.171 838.886C410.892 832.714 485.997 810.165 561.789 800.214C568.931 799.275 576.073 798.463 583.216 797.801C651.728 791.331 722.025 798.121 775.703 820.052C830.233 842.302 865.148 876.938 924.292 898.014C937.835 902.84 951.955 906.598 966.57 909.502C1058.68 927.994 1170.92 913.047 1267.84 935.831C1363.16 958.317 1443.05 1022.48 1459.92 1099.12" stroke="url(#paint17_linear_398_390)" stroke-width="0.5" stroke-miterlimit="10"/>
<path opacity="0.46" d="M-1198.78 -199.329C-1193.76 -140.691 -1164.31 -86.0262 -1118.05 -46.223C-1097.55 -28.5849 -1073.76 -13.5092 -1045.91 -1.05998C-1010.47 14.6349 -970.281 24.5857 -928.635 31.7178C-891.935 37.9745 -853.86 42.0957 -816.17 45.192C-735.846 51.833 -654.148 55.0787 -576.488 70.4534C-498.801 85.828 -424.74 116.748 -384.688 156.786C-365.238 176.175 -353.673 196.077 -338.674 216.705C-331.257 226.89 -322.961 237.332 -312.522 248.116C-291.397 269.811 -261.948 290.588 -232.335 310.169C-221.347 317.451 -210.413 324.669 -200.057 331.523C-168.795 352.193 -142.726 370.558 -128.661 384.694C-125.501 387.854 -122.892 390.801 -120.612 393.577C-108.195 408.738 -105.008 419.18 -74.9552 437.202C-58.253 447.217 -33.4745 454.798 -5.23462 460.115C21.6043 465.176 51.465 468.678 79.5676 471.368C132.971 476.429 186.786 482.301 228.898 506.602C232.387 508.609 235.794 510.766 239.09 513.05C284.362 544.526 300.515 598.337 287.961 643.799C284.582 656.034 279.252 667.822 272.192 678.883C253.182 708.927 222.086 735.363 220.382 770.255C219.174 797.652 244.172 820.564 269.28 830.515C295.103 840.744 321.694 842.067 352.352 839.847C416.688 835.213 491.711 813.112 567.063 802.969C574.15 802.008 581.265 801.197 588.353 800.492C656.425 793.765 726.256 799.809 780.181 820.458C834.985 841.384 871.054 874.269 930.281 894.299C943.824 898.89 957.971 902.456 972.558 905.21C1064.48 922.763 1175.79 908.563 1272.04 931.454C1366.76 954.067 1446.35 1017.74 1463.27 1093.96" stroke="url(#paint18_linear_398_390)" stroke-width="0.5" stroke-miterlimit="10"/>
<path opacity="0.49" d="M-1197.71 -201.229C-1192.11 -142.506 -1161.01 -88.1614 -1113.49 -49.0416C-1092.44 -31.7238 -1068.21 -16.9897 -1040.06 -4.86087C-1004.21 10.4283 -963.798 20.0802 -921.988 26.9988C-885.15 33.0846 -846.993 37.099 -809.193 40.1953C-728.649 46.7509 -646.814 50.1034 -568.852 65.1363C-490.862 80.1693 -416.389 110.214 -374.441 149.184C-354.086 168.061 -341.257 187.493 -325.159 207.693C-317.22 217.665 -308.429 227.915 -297.633 238.507C-275.767 259.839 -246.098 280.467 -216.595 300.24C-205.634 307.586 -194.81 314.931 -184.591 321.957C-153.741 343.139 -128.551 362.4 -115.914 377.391C-113.085 380.743 -110.832 383.861 -108.937 386.829C-98.5254 402.994 -97.8661 414.397 -68.8844 433.572C-52.7591 444.249 -28.1179 452.299 0.122011 457.894C26.9334 463.211 56.8765 466.777 85.034 469.382C138.574 474.272 192.692 479.547 235.161 503.591C238.678 505.577 242.112 507.712 245.435 509.976C291.147 541.237 307.382 595.134 295.267 640.809C291.998 653.109 286.806 664.96 279.966 676.107C261.478 706.429 231.261 733.292 229.475 768.269C228.239 795.516 252.248 818.536 276.642 829.084C301.805 839.975 327.985 842.238 358.505 840.765C422.457 837.669 497.369 815.995 572.31 805.702C579.37 804.741 586.43 803.887 593.462 803.161C661.095 796.178 730.459 801.496 784.631 820.842C839.71 840.466 876.905 871.578 936.269 890.562C949.84 894.918 963.987 898.27 978.547 900.897C1070.3 917.51 1180.68 904.057 1276.27 927.076C1370.42 949.818 1449.67 1012.98 1466.62 1088.81" stroke="url(#paint19_linear_398_390)" stroke-width="0.5" stroke-miterlimit="10"/>
<path opacity="0.51" d="M-1196.67 -203.151C-1190.49 -144.322 -1157.71 -90.3396 -1108.98 -51.8816C-1087.42 -34.8628 -1062.72 -20.4704 -1034.26 -8.70457C-998.027 6.17892 -957.343 15.5105 -915.395 22.2155C-878.392 28.1091 -840.153 32.0595 -802.271 35.1131C-721.507 41.6046 -639.507 45.0212 -561.27 59.7339C-482.979 74.4465 -408.066 103.594 -364.25 141.518C-342.96 159.882 -328.895 178.845 -311.726 198.618C-303.265 208.377 -294.007 218.413 -282.827 228.833C-260.246 249.803 -230.33 270.281 -200.909 290.246C-189.976 297.678 -179.235 305.13 -169.153 312.326C-138.743 334.021 -114.376 354.158 -103.196 370.024C-100.696 373.568 -98.7731 376.878 -97.2622 380.017C-88.8836 397.207 -90.6967 409.549 -62.8139 429.878C-47.2655 441.217 -22.7891 449.737 5.45085 455.609C32.2348 461.182 62.2878 464.834 90.4728 467.332C144.151 472.03 198.597 476.707 241.397 500.495C244.941 502.459 248.402 504.573 251.753 506.837C297.877 537.885 314.249 591.867 302.519 637.756C299.36 650.098 294.305 662.014 287.657 673.288C269.692 703.888 240.326 731.178 238.512 766.241C237.249 793.338 260.297 816.464 283.949 827.611C308.425 839.142 334.193 842.388 364.63 841.64C428.198 840.103 503 818.835 577.529 808.393C584.534 807.41 591.539 806.535 598.544 805.788C665.737 798.549 734.606 803.14 789.053 821.184C844.407 839.484 882.756 868.866 942.202 886.782C955.8 890.882 969.92 894.064 984.48 896.541C1076.07 912.214 1185.48 899.509 1280.45 922.635C1374.01 945.505 1452.94 1008.18 1469.94 1083.6" stroke="url(#paint20_linear_398_390)" stroke-width="0.5" stroke-miterlimit="10"/>
<path opacity="0.54" d="M-1195.59 -205.053C-1188.84 -146.117 -1154.42 -92.4763 -1104.45 -54.6804C-1082.33 -37.9604 -1057.2 -23.9311 -1028.44 -12.4855C-991.79 1.99225 -950.886 11.0035 -908.801 17.5163C-871.66 23.2391 -833.338 27.1041 -795.346 30.115C-714.39 36.5211 -632.225 40.0445 -553.686 54.4155C-475.093 68.8078 -399.768 97.0587 -354.057 133.936C-331.86 151.809 -316.532 170.28 -298.291 189.648C-289.308 199.193 -279.556 209.037 -268.046 219.266C-244.723 239.893 -214.56 260.201 -185.249 280.358C-174.371 287.854 -163.712 295.434 -153.768 302.801C-123.77 324.988 -100.255 346.042 -90.5576 362.741C-88.3874 366.478 -86.8216 369.98 -85.6678 373.311C-79.322 391.504 -83.635 404.807 -56.8235 426.289C-41.852 438.29 -17.5404 447.28 10.727 453.451C37.4835 459.281 67.6189 462.996 95.8588 465.409C149.674 469.936 204.423 474.015 247.607 497.546C251.178 499.49 254.667 501.582 258.074 503.824C304.609 534.638 321.091 588.748 309.773 634.85C306.724 647.257 301.834 659.236 295.351 670.596C277.907 701.474 249.42 729.212 247.525 764.339C246.206 791.287 268.293 814.52 291.231 826.264C315.02 838.457 340.376 843.198 370.704 842.643C433.859 841.511 508.579 821.823 582.695 811.21C589.673 810.206 596.623 809.31 603.573 808.541C670.354 801.046 738.729 804.889 793.45 821.652C849.079 838.649 888.582 866.26 948.138 883.129C961.764 886.994 975.883 889.984 990.388 892.311C1081.78 907.067 1190.29 895.087 1284.57 918.341C1377.56 941.339 1456.15 1003.52 1473.19 1078.52" stroke="url(#paint21_linear_398_390)" stroke-width="0.5" stroke-miterlimit="10"/>
<path opacity="0.56" d="M-1194.52 -206.952C-1187.16 -147.909 -1151.12 -94.6101 -1099.89 -57.4975C-1077.25 -41.0979 -1051.68 -27.4102 -1022.61 -16.3063C-985.582 -2.2556 -944.43 6.45668 -902.18 12.7774C-864.903 18.3293 -826.499 22.1089 -788.369 25.0771C-707.193 31.3978 -624.891 35.0065 -546.05 49.0786C-467.154 63.1506 -391.39 90.4833 -343.811 126.315C-320.68 143.675 -304.088 161.676 -284.803 180.617C-275.299 189.949 -265.052 199.579 -253.185 209.637C-229.12 229.901 -198.738 250.059 -169.536 270.409C-158.685 277.968 -148.109 285.677 -138.302 293.236C-108.716 315.935 -86.0527 337.887 -77.8115 355.439C-75.971 359.368 -74.7623 363.063 -73.9656 366.565C-69.6253 385.783 -76.4655 400.026 -50.7254 422.661C-36.3308 435.345 -12.1839 444.783 16.1109 451.232C42.8124 457.296 73.0577 461.119 101.353 463.425C155.305 467.76 210.384 471.24 253.897 494.537C257.524 496.459 261.04 498.53 264.446 500.772C311.421 531.372 327.986 585.568 317.08 631.884C314.141 644.333 309.388 656.398 303.097 667.843C286.175 698.998 258.54 727.164 256.59 762.376C255.243 789.175 276.341 812.514 298.537 824.857C321.668 837.712 346.584 842.858 376.801 843.605C439.572 845.121 514.183 824.75 587.887 813.988C594.809 812.984 601.732 812.066 608.627 811.254C674.969 803.503 742.876 806.621 797.845 822.081C853.748 837.754 894.405 863.635 954.071 879.436C967.724 883.067 981.844 885.864 996.321 888.021C1087.55 901.836 1195.1 890.604 1288.75 913.965C1381.13 937.091 1459.4 998.761 1476.48 1073.37" stroke="url(#paint22_linear_398_390)" stroke-width="0.5" stroke-miterlimit="10"/>
<path opacity="0.59" d="M-1193.48 -208.853C-1185.54 -149.703 -1147.85 -96.7677 -1095.38 -60.317C-1072.2 -44.2164 -1046.18 -30.8917 -1016.82 -20.1081C-979.374 -6.46316 -938.003 1.92883 -895.588 8.05733C-858.173 13.4384 -819.659 17.1326 -781.447 20.0581C-700.079 26.2934 -617.612 29.9875 -538.469 43.7393C-459.271 57.491 -383.095 83.9269 -333.592 118.712C-309.555 135.56 -291.699 153.091 -271.344 171.605C-261.317 180.723 -250.603 190.161 -238.351 200.048C-213.573 219.95 -182.915 239.958 -153.824 260.5C-143 268.145 -132.534 275.982 -122.864 283.69C-93.6904 306.902 -71.9062 329.75 -65.1209 348.157C-63.5826 352.278 -62.7584 356.143 -62.3464 359.859C-60.0388 380.081 -69.3788 395.284 -44.7376 419.094C-30.9198 432.44 -6.91049 442.348 21.3844 449.074C48.0584 455.395 78.4136 459.281 106.736 461.502C160.826 465.666 216.207 468.549 260.078 491.589C263.731 493.49 267.275 495.561 270.709 497.76C318.096 528.125 334.798 582.428 324.277 628.957C321.447 641.449 316.832 653.578 310.734 665.13C294.334 696.584 267.577 725.156 265.572 760.453C264.198 787.102 284.307 810.549 305.789 823.51C328.232 837.027 352.736 843.134 382.844 844.608C445.23 847.661 519.731 827.738 593.023 816.805C599.918 815.78 606.786 814.841 613.626 814.008C679.528 806 746.941 808.371 802.185 822.549C858.362 836.899 900.145 861.029 959.922 875.784C973.602 879.158 987.722 881.763 1002.17 883.792C1093.24 896.668 1199.82 886.162 1292.84 909.651C1384.65 932.905 1462.58 994.083 1479.72 1068.27" stroke="url(#paint23_linear_398_390)" stroke-width="0.5" stroke-miterlimit="10"/>
<path opacity="0.61" d="M-1192.41 -210.753C-1183.9 -151.497 -1144.56 -98.903 -1090.85 -63.1356C-1067.14 -47.3553 -1040.66 -34.3723 -1010.99 -23.909C-973.14 -10.6697 -931.549 -2.59806 -888.997 3.33826C-851.445 8.54855 -812.848 12.1573 -774.527 15.0401C-692.939 21.2113 -610.334 24.9909 -530.889 38.401C-451.416 51.8111 -374.773 77.3713 -323.403 111.11C-298.459 127.446 -279.34 144.507 -257.885 162.594C-247.309 171.498 -236.128 180.723 -223.519 190.439C-197.999 209.999 -167.122 229.836 -138.113 250.571C-127.344 258.279 -116.96 266.244 -107.428 274.124C-78.6934 297.848 -57.7332 321.572 -52.4039 340.833C-51.1952 345.146 -50.7282 349.203 -50.6732 353.09C-50.3985 374.315 -62.211 390.48 -38.6685 415.442C-25.4277 429.45 -1.58308 439.828 26.7392 446.832C53.3858 453.409 83.8234 457.381 112.228 459.495C166.455 463.467 222.166 465.773 266.366 488.536C270.047 490.415 273.619 492.465 277.107 494.643C324.934 524.794 341.718 579.203 331.609 625.925C328.89 638.481 324.412 650.674 318.533 662.333C302.628 694.065 276.75 723.084 274.69 758.467C273.289 784.967 292.409 808.542 313.177 822.08C334.933 836.259 359.053 843.305 389.023 845.526C451.025 850.096 525.443 830.621 598.268 819.517C605.108 818.471 611.948 817.51 618.761 816.656C684.224 808.392 751.17 810.036 806.688 822.913C863.14 835.96 906.077 858.338 965.963 872.005C979.644 875.144 993.764 877.557 1008.21 879.436C1099.09 891.372 1204.77 881.614 1297.1 905.231C1388.33 928.613 1465.93 989.279 1483.1 1063.08" stroke="url(#paint24_linear_398_390)" stroke-width="0.5" stroke-miterlimit="10"/>
<path opacity="0.63" d="M-1191.34 -212.654C-1182.22 -153.291 -1141.26 -101.038 -1086.29 -65.9542C-1062.06 -50.4728 -1035.11 -37.8529 -1005.14 -27.7312C-966.903 -14.919 -925.038 -7.12495 -882.348 -1.40217C-844.631 3.63729 -805.952 7.16065 -767.521 10.0007C-685.713 16.0865 -602.943 19.9515 -523.223 33.0413C-443.448 46.131 -366.393 70.7945 -313.127 103.466C-287.25 119.31 -266.894 135.88 -244.368 153.54C-233.27 162.231 -221.595 171.263 -208.629 180.787C-182.394 199.984 -151.27 219.672 -122.371 240.599C-111.63 248.393 -101.328 256.464 -91.9331 264.515C-63.6107 288.751 -43.5022 313.372 -39.6563 333.487C-38.7772 337.993 -38.6673 342.242 -38.9695 346.321C-40.7002 368.571 -55.0398 385.675 -32.5688 411.791C-19.9323 426.461 3.77495 437.308 32.1247 444.59C58.7439 451.423 89.2638 455.48 117.724 457.488C172.061 461.267 228.101 462.976 272.658 485.504C276.367 487.383 279.966 489.39 283.482 491.568C331.72 521.506 348.615 576 338.918 622.936C336.308 635.534 331.968 647.791 326.281 659.557C310.898 691.566 285.899 721.013 283.784 756.481C282.328 782.832 300.486 806.513 320.54 820.649C341.61 835.49 365.317 843.476 395.178 846.444C456.795 852.552 531.103 833.525 603.516 822.251C610.328 821.204 617.114 820.222 623.871 819.325C688.895 810.805 755.374 811.702 811.139 823.297C867.839 835.02 911.957 855.648 971.926 868.268C985.633 871.151 999.753 873.393 1014.18 875.122C1104.88 886.119 1209.6 877.108 1301.3 900.832C1391.95 924.343 1469.23 984.517 1486.45 1057.89" stroke="url(#paint25_linear_398_390)" stroke-width="0.5" stroke-miterlimit="10"/>
<path opacity="0.66" d="M-1190.29 -214.555C-1180.6 -155.085 -1137.96 -103.195 -1081.78 -68.7733C-1057.01 -53.5909 -1029.62 -41.3339 -999.345 -31.5326C-960.694 -19.1261 -918.609 -11.6523 -875.754 -6.12175C-837.9 -1.25312 -799.139 2.16345 -760.597 4.98213C-678.597 10.9825 -595.663 14.9543 -515.641 27.7024C-435.564 40.4719 -358.069 64.2385 -302.935 95.8632C-276.151 111.195 -254.531 127.317 -230.934 144.55C-219.314 153.027 -207.144 161.846 -193.849 171.199C-166.872 190.033 -135.501 209.571 -106.712 230.69C-95.998 238.548 -85.8063 246.748 -76.5487 254.969C-48.6384 279.718 -29.4089 305.236 -26.9915 326.205C-26.4421 330.903 -26.6893 335.344 -27.3761 339.594C-31.1396 362.848 -48.0066 380.913 -26.5794 408.182C-14.5198 423.535 9.02263 434.831 37.3724 442.39C63.9641 449.48 94.5665 453.601 123.081 455.523C177.556 459.131 233.926 460.242 278.813 482.514C282.549 484.371 286.175 486.357 289.719 488.514C338.369 518.217 355.401 572.818 346.089 619.967C343.589 632.63 339.386 644.951 333.892 656.802C319.03 689.089 294.883 718.963 292.713 754.516C291.229 780.717 308.371 804.527 327.738 819.239C348.121 834.742 371.416 843.668 401.167 847.383C462.372 855.007 536.598 836.429 608.599 825.005C615.357 823.937 622.114 822.934 628.817 822.037C693.401 813.26 759.385 813.431 815.426 823.702C872.4 834.123 917.672 852.999 977.75 864.552C991.486 867.2 1005.61 869.25 1020 870.83C1110.54 880.887 1214.3 872.623 1305.34 896.475C1395.42 920.114 1472.36 979.776 1489.61 1052.76" stroke="url(#paint26_linear_398_390)" stroke-width="0.5" stroke-miterlimit="10"/>
<path opacity="0.68" d="M-1189.22 -216.455C-1178.95 -156.878 -1134.67 -105.331 -1077.23 -71.5919C-1051.93 -56.7298 -1024.07 -44.8145 -993.495 -35.3334C-954.459 -23.3327 -912.127 -16.1792 -869.135 -10.8622C-831.143 -6.16436 -792.3 -2.83318 -753.648 -0.0572038C-671.429 5.85776 -588.357 9.91495 -508.005 22.3641C-427.626 34.8133 -349.719 57.683 -292.662 88.2615C-264.944 103.081 -242.089 118.733 -217.42 135.538C-205.278 143.802 -192.641 152.429 -178.961 161.59C-151.27 180.082 -119.652 199.45 -90.9447 220.761C-80.286 228.683 -70.1494 237.011 -61.0291 245.424C-33.5309 270.686 -15.1529 297.079 -14.2189 318.924C-13.9992 323.814 -14.576 328.426 -15.6474 332.889C-21.4437 357.168 -40.8106 376.173 -20.4548 404.594C-8.99947 420.61 14.433 432.375 42.7828 440.212C69.3195 447.537 100.059 451.765 128.601 453.58C183.213 456.996 239.885 457.509 285.13 479.546C288.893 481.382 292.574 483.347 296.145 485.503C345.236 514.993 362.35 569.701 353.449 617.042C351.059 629.747 346.994 642.154 341.692 654.09C327.352 686.676 304.084 716.977 301.832 752.595C300.321 778.625 316.474 802.562 335.126 817.873C354.823 834.038 377.706 843.924 407.347 848.366C468.167 857.505 542.283 839.376 613.872 827.802C620.602 826.713 627.305 825.688 633.953 824.77C698.097 815.738 763.615 815.182 819.93 824.151C877.179 833.247 923.604 850.373 983.765 860.879C997.528 863.292 1011.65 865.129 1026.02 866.581C1116.37 875.699 1219.22 868.182 1309.6 892.141C1399.07 915.929 1475.71 975.078 1492.99 1047.66" stroke="url(#paint27_linear_398_390)" stroke-width="0.5" stroke-miterlimit="10"/>
<path opacity="0.71" d="M-1188.15 -218.354C-1177.27 -158.671 -1131.45 -107.38 -1072.69 -74.4095C-1046.9 -59.8036 -1018.55 -48.294 -987.697 -39.1547C-948.249 -27.581 -905.697 -20.7265 -862.54 -15.6016C-824.411 -11.096 -785.457 -7.82889 -746.724 -5.07426C-664.311 0.776635 -581.075 4.8979 -500.421 17.0268C-419.74 29.1556 -341.393 51.1285 -282.468 80.6606C-253.844 94.9676 -229.725 110.15 -203.985 126.528C-191.321 134.579 -178.19 143.013 -164.152 151.982C-135.72 170.111 -103.854 189.329 -75.2843 210.832C-64.6531 218.84 -54.6263 227.296 -45.6433 235.859C-18.5847 261.633 -1.03084 288.923 -1.55279 311.6C-1.66267 316.682 -2.59674 321.487 -4.02522 326.121C-11.8269 351.404 -33.721 371.369 -14.4366 400.944C-3.55816 417.621 19.7095 429.857 48.0867 437.971C74.596 445.552 105.418 449.844 134.015 451.574C188.764 454.819 245.766 454.734 291.368 476.493C295.158 478.308 298.867 480.273 302.466 482.387C351.968 511.641 369.22 566.456 360.731 614.011C358.451 626.78 354.55 639.229 349.441 651.294C335.623 684.157 313.207 714.885 310.927 750.589C309.388 776.469 324.552 800.535 342.463 816.422C361.445 833.27 383.971 844.075 413.475 849.264C473.91 859.898 547.917 842.26 619.093 830.515C625.769 829.405 632.417 828.38 639.037 827.419C702.742 818.13 767.792 816.828 824.354 824.515C881.878 832.309 929.43 847.684 989.728 857.122C1003.52 859.279 1017.61 860.944 1031.98 862.225C1122.16 870.404 1224.05 863.635 1313.8 887.7C1402.7 911.616 1479.01 970.275 1496.34 1042.43" stroke="url(#paint28_linear_398_390)" stroke-width="0.5" stroke-miterlimit="10"/>
<path opacity="0.73" d="M-1187.11 -220.255C-1175.65 -160.465 -1128.18 -109.537 -1068.19 -77.2286C-1041.84 -62.9431 -1013.05 -51.7751 -981.902 -42.956C-942.069 -31.7881 -899.242 -25.2539 -855.949 -20.3212C-817.682 -15.9864 -778.646 -12.8047 -739.775 -10.0928C-657.143 -4.32729 -573.769 -0.0992573 -492.813 11.688C-411.829 23.4752 -333.071 44.5726 -272.251 73.037C-242.72 86.8314 -217.364 101.587 -190.525 117.495C-177.367 125.353 -163.714 133.553 -149.319 142.372C-120.145 160.138 -88.0595 179.207 -59.5723 200.903C-48.9686 208.974 -39.0242 217.558 -30.1786 226.292C-3.532 252.578 13.1427 280.765 11.1923 304.297C10.7528 309.571 9.46162 314.568 7.64855 319.373C-2.18597 345.68 -26.58 366.586 -8.39434 397.335C1.87971 414.695 25.0101 427.379 53.4148 435.771C79.8966 443.608 110.801 447.986 139.453 449.609C194.34 452.662 251.643 451.979 297.602 473.503C301.42 475.297 305.157 477.24 308.81 479.354C358.724 508.395 376.086 563.295 368.009 611.085C365.839 623.897 362.076 636.432 357.159 648.582C343.863 681.723 322.326 712.878 319.963 748.666C318.37 774.398 332.545 798.57 349.769 815.055C368.065 832.565 390.178 844.309 419.572 850.246C479.651 862.396 553.547 845.206 624.284 833.291C630.932 832.181 637.525 831.113 644.09 830.131C707.383 820.586 771.912 818.557 828.749 824.942C886.547 831.412 935.253 845.035 995.633 853.427C1009.45 855.349 1023.54 856.823 1037.88 857.954C1127.9 865.193 1228.86 859.172 1317.92 883.365C1406.24 907.409 1482.22 965.555 1499.58 1037.32" stroke="url(#paint29_linear_398_390)" stroke-width="0.5" stroke-miterlimit="10"/>
<path opacity="0.76" d="M-1186.04 -222.155C-1174 -162.258 -1124.86 -111.672 -1063.63 -80.0468C-1036.76 -66.0601 -1007.5 -55.2338 -976.051 -46.7778C-935.806 -36.0156 -892.76 -29.8016 -849.328 -25.0611C-810.897 -20.8972 -771.779 -17.8009 -732.825 -15.1317C-650.001 -9.45162 -566.435 -5.13818 -485.204 6.32873C-403.918 17.7956 -324.748 37.9748 -262.032 65.4143C-231.567 78.7176 -204.975 92.9818 -177.037 108.463C-163.357 116.108 -149.237 124.115 -134.458 132.742C-104.57 150.167 -72.2367 169.065 -43.832 190.952C-33.2832 199.088 -23.4212 207.8 -14.713 216.705C11.5216 243.504 27.3447 272.587 23.9109 296.973C23.1417 302.44 21.4934 307.629 19.3232 312.625C7.45585 339.937 -19.4655 361.803 -2.32374 393.705C7.37343 411.728 30.3665 424.882 58.7712 433.551C85.2255 441.644 116.24 446.107 144.919 447.623C199.943 450.506 257.577 449.225 303.865 470.493C307.711 472.265 311.474 474.187 315.155 476.28C365.509 505.107 382.953 560.114 375.289 608.096C373.228 620.972 369.602 633.571 364.877 645.806C352.076 679.225 331.418 710.828 329.028 746.681C327.407 772.263 340.566 796.563 357.103 813.625C374.684 831.797 396.441 844.459 425.697 851.164C485.391 864.809 559.178 848.111 629.503 836.025C636.096 834.893 642.661 833.804 649.172 832.8C712.025 822.999 776.087 820.223 833.198 825.326C891.271 830.473 941.131 842.345 1001.62 849.691C1015.47 851.378 1029.56 852.659 1043.87 853.641C1133.7 859.941 1233.72 854.666 1322.15 878.967C1409.89 903.139 1485.55 960.794 1502.96 1032.14" stroke="url(#paint30_linear_398_390)" stroke-width="0.5" stroke-miterlimit="10"/>
<path opacity="0.78" d="M-1184.97 -224.078C-1172.33 -164.074 -1121.56 -113.829 -1059.1 -82.8878C-1031.68 -69.2215 -1001.98 -58.7368 -970.228 -50.6011C-929.599 -40.2659 -886.305 -34.3296 -842.709 -29.8026C-804.14 -25.8095 -764.939 -22.7986 -725.876 -20.1721C-642.832 -14.5775 -559.129 -10.1573 -477.595 0.967967C-396.007 12.1146 -316.397 31.3969 -251.814 57.79C-220.442 70.5809 -192.587 84.3967 -163.578 99.451C-149.375 106.882 -134.761 114.676 -119.652 123.132C-89.0221 140.194 -56.4418 158.942 -28.1744 181.001C-17.6531 189.222 -7.90102 198.041 0.669845 207.137C26.4649 234.449 41.4638 264.408 36.574 289.648C35.4752 295.307 33.4699 300.666 30.9426 305.855C17.0698 334.192 -12.3788 356.997 3.69156 390.053C12.7844 408.737 35.64 422.361 64.0722 431.329C90.4991 439.657 121.596 444.206 150.358 445.636C205.519 448.327 263.455 446.469 310.1 467.46C313.974 469.211 317.764 471.111 321.473 473.204C372.239 501.796 389.82 556.91 382.54 605.105C380.59 618.024 377.101 630.687 372.569 643.029C360.289 676.747 340.51 708.756 338.038 744.694C336.39 770.126 348.559 794.534 364.382 812.214C381.277 831.07 402.622 844.651 431.795 852.103C491.105 867.264 564.781 851.014 634.694 838.778C641.232 837.625 647.77 836.536 654.253 835.49C716.667 825.432 780.262 821.93 837.62 825.731C895.968 829.575 946.981 839.697 1007.58 845.974C1021.43 847.405 1035.52 848.516 1049.83 849.348C1139.5 854.73 1238.56 850.181 1326.35 874.61C1413.49 898.91 1488.84 956.053 1506.29 1027.01" stroke="url(#paint31_linear_398_390)" stroke-width="0.5" stroke-miterlimit="10"/>
<path opacity="0.8" d="M-1183.92 -225.978C-1170.71 -165.868 -1118.29 -115.985 -1054.59 -85.6846C-1026.65 -72.3172 -996.515 -62.1956 -964.429 -54.3801C-923.388 -44.4507 -879.874 -38.8347 -836.113 -34.4999C-797.407 -30.6776 -758.124 -27.7735 -718.923 -25.1683C-635.659 -19.6378 -551.819 -15.1535 -469.983 -4.32718C-388.093 6.49912 -308.071 24.8846 -241.564 50.21C-209.286 62.4884 -180.167 75.8344 -150.087 90.4616C-135.335 97.6792 -120.254 105.281 -104.788 113.545C-73.4436 130.243 -40.6161 148.843 -12.4311 171.093C-1.9373 179.378 7.7324 188.325 16.1659 197.593C41.5489 225.417 55.6688 256.273 49.3231 282.367C47.8946 288.218 45.5321 293.77 42.6202 299.151C26.7147 328.491 -5.26121 352.257 9.76527 386.466C18.2537 405.812 40.972 419.906 69.4042 429.152C95.8036 437.736 126.983 442.37 155.8 443.694C211.098 446.213 269.364 443.736 316.339 464.492C320.239 466.222 324.085 468.101 327.821 470.172C379.027 498.551 396.69 553.75 389.823 602.159C387.982 615.121 384.631 627.869 380.318 640.297C368.561 674.292 349.633 706.728 347.106 742.773C345.43 768.056 356.583 792.591 371.72 810.848C387.9 830.365 408.887 844.886 437.924 853.086C496.876 869.742 570.415 853.983 639.916 841.576C646.427 840.423 652.91 839.291 659.338 838.224C721.312 827.91 784.412 823.66 842.046 826.18C900.668 828.7 952.808 837.07 1013.52 842.302C1027.39 843.498 1041.48 844.395 1055.74 845.099C1145.21 849.541 1243.37 845.74 1330.48 870.275C1417.04 894.704 1492.06 951.355 1509.53 1021.89" stroke="url(#paint32_linear_398_390)" stroke-width="0.5" stroke-miterlimit="10"/>
<path opacity="0.83" d="M-1182.85 -227.878C-1169.06 -167.682 -1114.97 -118.121 -1050.03 -88.5032C-1021.54 -75.4347 -990.967 -65.6761 -958.579 -58.2023C-917.153 -48.6786 -873.392 -43.3829 -829.466 -39.2403C-790.623 -35.5888 -751.229 -32.7701 -711.946 -30.2077C-628.49 -24.7625 -544.485 -20.1928 -462.347 -9.68682C-380.155 0.797821 -299.693 18.3078 -231.319 42.5869C-198.106 54.3528 -167.724 67.229 -136.599 81.4292C-121.326 88.4332 -105.777 95.8216 -89.9267 103.915C-57.8409 120.272 -24.7662 138.7 3.30892 161.142C13.7478 169.513 23.3351 178.588 31.6312 188.005C56.6021 216.342 69.8704 248.094 62.0688 275.043C60.3106 281.086 57.5911 286.83 54.3221 292.382C36.3837 322.747 1.88046 347.453 15.8631 382.815C23.7746 402.844 46.3555 417.365 74.7877 426.91C101.132 435.75 132.449 440.448 161.293 441.687C216.729 444.014 275.297 440.961 322.629 461.46C326.557 463.168 330.43 465.026 334.194 467.097C385.811 495.242 403.585 550.548 397.129 599.17C395.399 612.196 392.184 624.986 388.064 637.542C376.828 671.815 358.78 704.7 356.198 740.809C354.467 765.942 364.631 790.584 379.081 809.439C394.547 829.618 415.177 845.078 444.077 854.026C502.672 872.176 576.074 856.887 645.162 844.331C651.618 843.157 658.074 842.003 664.447 840.914C725.981 830.344 788.614 825.369 846.523 826.586C905.42 827.803 958.713 834.423 1019.53 838.587C1033.43 839.548 1047.53 840.253 1061.76 840.808C1151.06 844.31 1248.25 841.256 1334.73 865.898C1420.72 890.455 1495.41 946.615 1512.94 1016.74" stroke="url(#paint33_linear_398_390)" stroke-width="0.5" stroke-miterlimit="10"/>
<path opacity="0.85" d="M-1181.78 -229.779C-1167.41 -169.477 -1111.67 -120.256 -1045.5 -91.3223C-1016.49 -78.5741 -985.445 -69.1572 -952.783 -62.0037C-910.945 -52.8857 -866.937 -47.9103 -822.901 -43.9812C-783.893 -40.5006 -744.445 -37.7673 -705.052 -35.2476C-621.376 -29.8878 -537.233 -25.2114 -454.793 -15.047C-372.299 -4.88271 -291.425 11.7304 -221.155 34.9632C-187.036 46.2379 -155.39 58.6231 -123.194 72.3962C-107.399 79.1866 -91.3556 86.3828 -75.1478 94.2836C-42.3203 110.278 -9.02581 128.556 18.9394 151.191C29.3508 159.626 38.8557 168.829 47.0145 178.417C71.5733 207.266 83.99 239.915 74.7049 267.697C72.6171 273.932 69.5679 279.868 65.9143 285.612C45.9706 316.981 8.94004 342.648 21.8513 379.184C29.1585 399.876 51.6295 414.823 80.0617 424.689C106.406 433.721 137.778 438.568 166.677 439.7C222.25 441.836 281.148 438.184 328.809 458.449C332.792 460.136 336.666 461.993 340.457 464.022C392.486 491.953 410.397 547.365 404.326 596.18C402.705 609.248 399.656 622.124 395.7 634.766C384.987 669.316 367.79 702.628 365.153 738.822C363.395 763.806 372.543 788.576 386.278 808.008C401.03 828.849 421.276 845.227 450.065 854.943C508.275 874.589 581.595 859.79 650.217 847.064C656.645 845.868 663.045 844.715 669.364 843.583C730.459 832.757 792.625 827.034 850.78 826.97C909.952 826.863 964.399 831.732 1025.3 834.849C1039.23 835.554 1053.32 836.088 1067.52 836.494C1156.67 839.056 1252.92 836.75 1338.74 861.52C1424.15 886.205 1498.49 941.852 1516.07 1011.59" stroke="url(#paint34_linear_398_390)" stroke-width="0.5" stroke-miterlimit="10"/>
<path opacity="0.88" d="M-1180.74 -231.68C-1165.76 -171.27 -1108.41 -122.413 -1040.99 -94.1409C-1011.43 -81.6917 -979.952 -72.6377 -946.988 -65.8259C-904.738 -57.135 -860.51 -52.4585 -816.309 -48.7217C-777.164 -45.4118 -737.606 -42.764 -698.13 -40.287C-614.262 -35.0126 -529.955 -30.2508 -447.213 -20.4067C-364.416 -10.5627 -283.103 5.15359 -210.965 27.3187C-175.912 38.0809 -143.029 49.9963 -109.735 63.3423C-93.4173 69.9192 -76.88 76.9018 -60.3426 84.6532C-26.8008 100.284 6.74094 118.413 34.6237 141.24C45.0077 149.739 54.4026 159.071 62.4241 168.829C86.5434 198.191 98.136 231.716 87.395 260.372C84.9775 266.8 81.5712 272.907 77.533 278.843C55.5564 311.215 15.9986 337.822 27.8385 375.533C34.5413 396.886 56.875 412.304 85.3347 422.447C111.652 431.735 143.106 436.668 172.06 437.693C227.743 439.658 286.97 435.408 335.016 455.395C339.027 457.061 342.928 458.897 346.774 460.904C399.243 488.621 417.236 544.12 411.577 593.148C410.066 606.28 407.154 619.22 403.391 631.947C393.199 666.796 376.881 700.514 374.162 736.793C372.376 761.628 380.508 786.505 393.556 806.535C407.594 828.059 427.483 845.355 456.135 855.819C513.988 876.959 587.17 862.631 655.38 849.733C661.753 848.537 668.099 847.341 674.389 846.188C735.045 835.106 796.717 828.657 855.147 827.29C914.593 825.881 970.194 828.999 1031.21 831.049C1045.16 831.518 1059.23 831.86 1073.43 832.095C1162.38 833.718 1257.7 832.159 1342.86 857.036C1427.66 881.849 1501.7 937.005 1519.33 1006.32" stroke="url(#paint35_linear_398_390)" stroke-width="0.5" stroke-miterlimit="10"/>
<path opacity="0.9" d="M-1179.66 -233.58C-1164.11 -173.063 -1105.08 -124.548 -1036.43 -96.959C-1006.35 -84.8301 -974.401 -76.1178 -941.134 -69.6263C-898.5 -61.3411 -854.024 -56.9849 -809.659 -53.4402C-770.376 -50.3226 -730.736 -47.7388 -691.123 -45.3045C-607.035 -40.1155 -522.563 -35.2469 -439.546 -25.7445C-356.447 -16.2208 -274.722 -1.40139 -200.688 19.7174C-164.729 29.9671 -130.583 41.4127 -96.217 54.353C-79.3775 60.7164 -62.3456 67.5069 -45.4511 75.0661C-11.1676 90.3553 22.6213 108.314 50.3942 131.333C60.7232 139.917 70.0633 149.355 77.9199 159.306C101.627 189.18 112.341 223.602 100.144 253.113C97.4241 259.732 93.6332 266.032 89.2379 272.16C65.2559 305.557 23.0609 333.125 33.9393 371.967C40.0103 393.983 62.2616 409.87 90.7213 420.29C117.011 429.836 148.547 434.832 177.556 435.772C233.377 437.544 292.933 432.697 341.309 452.449C345.347 454.093 349.276 455.908 353.149 457.916C406.03 485.398 424.161 541.003 418.886 590.244C417.485 603.419 414.711 616.424 411.14 629.257C401.443 664.384 386.004 698.55 383.257 734.894C381.444 759.579 388.531 784.584 400.921 805.19C414.244 827.376 433.776 845.612 462.29 856.823C519.814 879.458 592.831 865.599 660.629 852.552C666.975 851.335 673.265 850.118 679.501 848.944C739.745 837.605 800.922 830.43 859.627 827.761C919.348 825.027 976.075 826.394 1037.2 827.398C1051.18 827.633 1065.25 827.761 1079.42 827.868C1168.21 828.551 1262.57 827.739 1347.09 852.744C1431.32 877.686 1505.02 932.33 1522.69 1001.26" stroke="url(#paint36_linear_398_390)" stroke-width="0.5" stroke-miterlimit="10"/>
<path opacity="0.93" d="M-1178.59 -235.481C-1162.47 -174.858 -1101.78 -126.705 -1031.9 -99.7785C-1001.27 -87.9486 -968.881 -79.5993 -935.312 -73.4281C-892.265 -65.5486 -847.57 -61.4914 -803.068 -58.1603C-763.647 -55.2135 -723.925 -52.7151 -684.202 -50.3235C-599.894 -45.1986 -515.284 -40.2659 -431.966 -31.0839C-348.565 -21.8804 -266.4 -7.95785 -190.471 12.1146C-153.605 21.8518 -118.168 32.849 -82.758 45.3409C-65.3965 51.4907 -47.8976 58.0677 -30.6185 65.456C4.37916 80.3822 38.4154 98.1912 66.0784 121.403C76.3799 130.051 85.6101 139.617 93.3568 149.739C116.652 180.125 126.514 215.444 112.861 245.809C109.812 252.621 105.664 259.112 100.911 265.412C74.8965 299.812 30.2016 328.319 40.0087 368.336C45.4753 391.014 67.5893 407.371 96.0764 418.069C122.338 427.87 153.985 432.952 183.021 433.785C238.979 435.387 298.838 429.941 347.571 449.437C351.637 451.06 355.62 452.854 359.493 454.84C412.814 482.108 431.027 537.82 426.165 587.275C424.874 600.514 422.236 613.583 418.885 626.523C409.71 661.927 395.123 696.52 392.321 732.95C390.453 757.485 396.551 782.597 408.254 803.801C420.863 826.649 440.037 845.804 468.415 857.783C525.581 881.913 598.461 868.545 665.847 855.327C672.138 854.089 678.401 852.85 684.582 851.655C744.385 840.06 805.096 832.137 864.048 828.166C924.044 824.13 981.925 823.745 1043.16 823.681C1057.14 823.681 1071.23 823.617 1085.38 823.575C1174 823.318 1267.43 823.254 1351.27 848.366C1434.92 873.435 1508.29 927.588 1525.98 996.091" stroke="url(#paint37_linear_398_390)" stroke-width="0.5" stroke-miterlimit="10"/>
<path opacity="0.95" d="M-1177.55 -237.381C-1160.82 -176.652 -1098.52 -128.841 -1027.39 -102.597C-996.242 -91.0662 -963.387 -83.0799 -929.516 -77.2503C-886.085 -69.7979 -841.142 -66.0397 -796.475 -62.9007C-756.917 -60.1247 -717.085 -57.7331 -677.28 -55.3415C-592.78 -50.3021 -508.005 -45.2626 -424.384 -36.4008C-340.681 -27.5391 -258.104 -14.5133 -180.279 4.5341C-142.479 13.7802 -105.806 24.2862 -69.3249 36.351C-51.4414 42.2874 -33.4481 48.6721 -15.8119 55.8683C19.9275 70.4315 54.211 88.0909 81.7641 111.495C92.0382 120.207 101.158 129.923 108.768 140.194C131.651 171.093 140.661 207.308 125.525 238.506C122.146 245.51 117.641 252.194 112.504 258.664C84.4562 294.09 37.2616 323.536 45.9973 364.706C50.887 388.046 72.8361 404.872 101.323 415.848C127.53 425.906 159.286 431.052 188.405 431.799C244.501 433.209 304.689 427.187 353.752 446.405C357.845 448.007 361.856 449.779 365.784 451.765C419.517 478.799 437.84 534.617 433.417 584.286C432.236 597.568 429.736 610.721 426.577 623.747C417.923 659.429 404.215 694.449 401.359 730.964C399.463 755.35 404.545 780.568 415.561 802.37C427.428 825.881 446.301 845.932 474.513 858.701C531.405 884.24 604.065 871.428 671.039 858.061C677.302 856.801 683.51 855.562 689.664 854.324C749.028 842.473 809.244 833.824 868.471 828.55C928.741 823.19 987.776 821.055 1049.09 819.923C1063.1 819.667 1077.19 819.432 1091.31 819.24C1179.74 818.044 1272.24 818.727 1355.44 843.946C1438.52 869.143 1511.56 922.783 1529.31 990.902" stroke="url(#paint38_linear_398_390)" stroke-width="0.5" stroke-miterlimit="10"/>
<path opacity="0.98" d="M-1176.48 -239.281C-1159.17 -178.445 -1095.19 -130.976 -1022.83 -105.415C-991.13 -94.2046 -957.836 -86.56 -923.662 -81.0507C-879.819 -74.004 -834.63 -70.5661 -789.825 -67.6193C-750.102 -65.0142 -710.215 -62.708 -670.272 -60.3591C-585.553 -55.405 -500.641 -50.2801 -416.717 -41.7387C-332.712 -33.1972 -249.696 -21.0683 -170.003 -3.08858C-131.297 5.64506 -93.3596 15.6813 -55.8071 27.319C-37.3743 33.0418 -18.914 39.2344 -0.920686 46.2384C35.5604 60.4599 70.0637 77.9485 97.5344 101.544C107.753 110.342 116.819 120.165 124.291 130.607C146.734 162.018 154.893 199.109 138.328 231.182C134.62 238.378 129.758 245.254 124.263 251.917C94.2104 288.346 44.4884 318.732 52.1528 361.076C56.4657 385.078 78.25 402.396 106.765 413.628C132.944 423.942 164.783 429.173 193.957 429.814C250.189 431.052 310.68 424.411 360.099 443.395C364.22 444.975 368.258 446.747 372.214 448.69C426.359 475.511 444.819 531.415 440.781 581.297C439.71 594.643 437.347 607.839 434.38 620.972C426.249 656.953 413.393 692.4 410.481 729C408.558 753.215 412.569 778.583 422.953 800.983C434.078 825.155 452.621 846.146 480.696 859.684C537.203 886.76 609.754 874.397 676.315 860.859C682.523 859.599 688.704 858.317 694.803 857.058C753.728 844.95 813.476 835.554 872.978 828.999C933.523 822.315 993.712 818.45 1055.14 816.251C1069.17 815.76 1083.24 815.333 1097.36 814.991C1185.62 812.856 1277.18 814.286 1359.73 839.633C1442.23 864.958 1514.94 918.108 1532.71 985.799" stroke="url(#paint39_linear_398_390)" stroke-width="0.5" stroke-miterlimit="10"/>
<path d="M-1175.41 -241.182C-1157.52 -180.238 -1091.89 -133.132 -1018.3 -108.234C-944.707 -83.3355 -863.229 -77.2497 -783.234 -72.3597C-533.113 -57.0918 -277.443 -49.9811 -42.3484 18.2865C15.0105 34.9424 72.3694 56.0825 113.218 91.5936C154.067 127.105 175.027 179.998 151.018 223.858C124.893 271.541 50.3928 305.942 58.167 357.447C65.3094 404.723 138.299 426.696 199.367 427.828C260.434 428.96 326.721 420.376 378.53 445.637C433.115 472.244 451.658 528.254 448.031 578.329C444.405 628.403 423.582 676.983 419.517 727.035C415.451 777.088 432.922 833.142 486.793 860.603C548.19 891.886 629.036 874.696 699.855 859.727C831.468 831.903 967.036 815.418 1103.26 810.678C1191.36 807.603 1281.96 809.781 1363.85 835.234C1445.74 860.688 1518.15 913.346 1535.98 980.631" stroke="url(#paint40_linear_398_390)" stroke-width="0.5" stroke-miterlimit="10"/>
</g>
<defs>
<linearGradient id="paint0_linear_398_390" x1="-1221.67" y1="510.807" x2="1404.51" y2="510.807" gradientUnits="userSpaceOnUse">
<stop stop-color="#4DC5FF"/>
<stop offset="0.17" stop-color="#4DCCEA"/>
<stop offset="0.53" stop-color="#4DE1B4"/>
<stop offset="1" stop-color="#4DFF65"/>
</linearGradient>
<linearGradient id="paint1_linear_398_390" x1="-1219.82" y1="507.284" x2="1407.83" y2="507.284" gradientUnits="userSpaceOnUse">
<stop stop-color="#4DC5FF"/>
<stop offset="0.17" stop-color="#4DCCEA"/>
<stop offset="0.53" stop-color="#4DE1B4"/>
<stop offset="1" stop-color="#4DFF65"/>
</linearGradient>
<linearGradient id="paint2_linear_398_390" x1="-1218.12" y1="503.762" x2="1411.13" y2="503.762" gradientUnits="userSpaceOnUse">
<stop stop-color="#4DC5FF"/>
<stop offset="0.17" stop-color="#4DCCEA"/>
<stop offset="0.53" stop-color="#4DE1B4"/>
<stop offset="1" stop-color="#4DFF65"/>
</linearGradient>
<linearGradient id="paint3_linear_398_390" x1="-1216.56" y1="500.238" x2="1414.42" y2="500.238" gradientUnits="userSpaceOnUse">
<stop stop-color="#4DC5FF"/>
<stop offset="0.17" stop-color="#4DCCEA"/>
<stop offset="0.53" stop-color="#4DE1B4"/>
<stop offset="1" stop-color="#4DFF65"/>
</linearGradient>
<linearGradient id="paint4_linear_398_390" x1="-1215.1" y1="496.714" x2="1417.72" y2="496.714" gradientUnits="userSpaceOnUse">
<stop stop-color="#4DC5FF"/>
<stop offset="0.17" stop-color="#4DCCEA"/>
<stop offset="0.53" stop-color="#4DE1B4"/>
<stop offset="1" stop-color="#4DFF65"/>
</linearGradient>
<linearGradient id="paint5_linear_398_390" x1="-1213.75" y1="493.192" x2="1421.02" y2="493.192" gradientUnits="userSpaceOnUse">
<stop stop-color="#4DC5FF"/>
<stop offset="0.17" stop-color="#4DCCEA"/>
<stop offset="0.53" stop-color="#4DE1B4"/>
<stop offset="1" stop-color="#4DFF65"/>
</linearGradient>
<linearGradient id="paint6_linear_398_390" x1="-1212.46" y1="489.668" x2="1424.34" y2="489.668" gradientUnits="userSpaceOnUse">
<stop stop-color="#4DC5FF"/>
<stop offset="0.17" stop-color="#4DCCEA"/>
<stop offset="0.53" stop-color="#4DE1B4"/>
<stop offset="1" stop-color="#4DFF65"/>
</linearGradient>
<linearGradient id="paint7_linear_398_390" x1="-1211.28" y1="486.145" x2="1427.64" y2="486.145" gradientUnits="userSpaceOnUse">
<stop stop-color="#4DC5FF"/>
<stop offset="0.17" stop-color="#4DCCEA"/>
<stop offset="0.53" stop-color="#4DE1B4"/>
<stop offset="1" stop-color="#4DFF65"/>
</linearGradient>
<linearGradient id="paint8_linear_398_390" x1="-1210.13" y1="482.621" x2="1430.93" y2="482.621" gradientUnits="userSpaceOnUse">
<stop stop-color="#4DC5FF"/>
<stop offset="0.17" stop-color="#4DCCEA"/>
<stop offset="0.53" stop-color="#4DE1B4"/>
<stop offset="1" stop-color="#4DFF65"/>
</linearGradient>
<linearGradient id="paint9_linear_398_390" x1="-1209.03" y1="479.098" x2="1434.23" y2="479.098" gradientUnits="userSpaceOnUse">
<stop stop-color="#4DC5FF"/>
<stop offset="0.17" stop-color="#4DCCEA"/>
<stop offset="0.53" stop-color="#4DE1B4"/>
<stop offset="1" stop-color="#4DFF65"/>
</linearGradient>
<linearGradient id="paint10_linear_398_390" x1="-1207.96" y1="475.552" x2="1437.53" y2="475.552" gradientUnits="userSpaceOnUse">
<stop stop-color="#4DC5FF"/>
<stop offset="0.17" stop-color="#4DCCEA"/>
<stop offset="0.53" stop-color="#4DE1B4"/>
<stop offset="1" stop-color="#4DFF65"/>
</linearGradient>
<linearGradient id="paint11_linear_398_390" x1="-1206.91" y1="472.029" x2="1440.85" y2="472.029" gradientUnits="userSpaceOnUse">
<stop stop-color="#4DC5FF"/>
<stop offset="0.17" stop-color="#4DCCEA"/>
<stop offset="0.53" stop-color="#4DE1B4"/>
<stop offset="1" stop-color="#4DFF65"/>
</linearGradient>
<linearGradient id="paint12_linear_398_390" x1="-1205.84" y1="468.506" x2="1444.15" y2="468.506" gradientUnits="userSpaceOnUse">
<stop stop-color="#4DC5FF"/>
<stop offset="0.17" stop-color="#4DCCEA"/>
<stop offset="0.53" stop-color="#4DE1B4"/>
<stop offset="1" stop-color="#4DFF65"/>
</linearGradient>
<linearGradient id="paint13_linear_398_390" x1="-1204.77" y1="464.984" x2="1447.44" y2="464.984" gradientUnits="userSpaceOnUse">
<stop stop-color="#4DC5FF"/>
<stop offset="0.17" stop-color="#4DCCEA"/>
<stop offset="0.53" stop-color="#4DE1B4"/>
<stop offset="1" stop-color="#4DFF65"/>
</linearGradient>
<linearGradient id="paint14_linear_398_390" x1="-1203.73" y1="461.461" x2="1450.74" y2="461.461" gradientUnits="userSpaceOnUse">
<stop stop-color="#4DC5FF"/>
<stop offset="0.17" stop-color="#4DCCEA"/>
<stop offset="0.53" stop-color="#4DE1B4"/>
<stop offset="1" stop-color="#4DFF65"/>
</linearGradient>
<linearGradient id="paint15_linear_398_390" x1="-1202.66" y1="457.915" x2="1454.04" y2="457.915" gradientUnits="userSpaceOnUse">
<stop stop-color="#4DC5FF"/>
<stop offset="0.17" stop-color="#4DCCEA"/>
<stop offset="0.53" stop-color="#4DE1B4"/>
<stop offset="1" stop-color="#4DFF65"/>
</linearGradient>
<linearGradient id="paint16_linear_398_390" x1="-1201.59" y1="454.391" x2="1457.36" y2="454.391" gradientUnits="userSpaceOnUse">
<stop stop-color="#4DC5FF"/>
<stop offset="0.17" stop-color="#4DCCEA"/>
<stop offset="0.53" stop-color="#4DE1B4"/>
<stop offset="1" stop-color="#4DFF65"/>
</linearGradient>
<linearGradient id="paint17_linear_398_390" x1="-1200.54" y1="450.868" x2="1460.66" y2="450.868" gradientUnits="userSpaceOnUse">
<stop stop-color="#4DC5FF"/>
<stop offset="0.17" stop-color="#4DCCEA"/>
<stop offset="0.53" stop-color="#4DE1B4"/>
<stop offset="1" stop-color="#4DFF65"/>
</linearGradient>
<linearGradient id="paint18_linear_398_390" x1="-1199.47" y1="447.345" x2="1463.95" y2="447.345" gradientUnits="userSpaceOnUse">
<stop stop-color="#4DC5FF"/>
<stop offset="0.17" stop-color="#4DCCEA"/>
<stop offset="0.53" stop-color="#4DE1B4"/>
<stop offset="1" stop-color="#4DFF65"/>
</linearGradient>
<linearGradient id="paint19_linear_398_390" x1="-1198.4" y1="443.801" x2="1467.25" y2="443.801" gradientUnits="userSpaceOnUse">
<stop stop-color="#4DC5FF"/>
<stop offset="0.0001" stop-color="#FFF48B"/>
<stop offset="0.53" stop-color="#4DE1B4"/>
<stop offset="1" stop-color="#4DFF65"/>
</linearGradient>
<linearGradient id="paint20_linear_398_390" x1="-1197.35" y1="440.277" x2="1470.55" y2="440.277" gradientUnits="userSpaceOnUse">
<stop stop-color="#4DC5FF"/>
<stop offset="0.17" stop-color="#4DCCEA"/>
<stop offset="0.53" stop-color="#4DE1B4"/>
<stop offset="1" stop-color="#4DFF65"/>
</linearGradient>
<linearGradient id="paint21_linear_398_390" x1="-1196.28" y1="436.753" x2="1473.87" y2="436.753" gradientUnits="userSpaceOnUse">
<stop stop-color="#4DC5FF"/>
<stop offset="0.17" stop-color="#4DCCEA"/>
<stop offset="0.53" stop-color="#4DE1B4"/>
<stop offset="1" stop-color="#4DFF65"/>
</linearGradient>
<linearGradient id="paint22_linear_398_390" x1="-1195.21" y1="433.231" x2="1477.17" y2="433.231" gradientUnits="userSpaceOnUse">
<stop stop-color="#4DC5FF"/>
<stop offset="0.17" stop-color="#4DCCEA"/>
<stop offset="0.53" stop-color="#4DE1B4"/>
<stop offset="1" stop-color="#4DFF65"/>
</linearGradient>
<linearGradient id="paint23_linear_398_390" x1="-1194.17" y1="429.707" x2="1480.46" y2="429.707" gradientUnits="userSpaceOnUse">
<stop stop-color="#FFE34D"/>
<stop offset="0.17" stop-color="#EAD14D"/>
<stop offset="0.53" stop-color="#4DE1B4"/>
<stop offset="1" stop-color="#4DFF65"/>
</linearGradient>
<linearGradient id="paint24_linear_398_390" x1="-1193.1" y1="426.162" x2="1483.76" y2="426.162" gradientUnits="userSpaceOnUse">
<stop stop-color="#4DC5FF"/>
<stop offset="0.17" stop-color="#4DCCEA"/>
<stop offset="0.53" stop-color="#4DE1B4"/>
<stop offset="1" stop-color="#4DFF65"/>
</linearGradient>
<linearGradient id="paint25_linear_398_390" x1="-1192.03" y1="422.639" x2="1487.08" y2="422.639" gradientUnits="userSpaceOnUse">
<stop stop-color="#4DC5FF"/>
<stop offset="0.17" stop-color="#4DCCEA"/>
<stop offset="0.53" stop-color="#4DE1B4"/>
<stop offset="1" stop-color="#4DFF65"/>
</linearGradient>
<linearGradient id="paint26_linear_398_390" x1="-1190.95" y1="419.115" x2="1490.38" y2="419.115" gradientUnits="userSpaceOnUse">
<stop stop-color="#4DC5FF"/>
<stop offset="0.17" stop-color="#4DCCEA"/>
<stop offset="0.53" stop-color="#4DE1B4"/>
<stop offset="1" stop-color="#4DFF65"/>
</linearGradient>
<linearGradient id="paint27_linear_398_390" x1="-1189.91" y1="415.592" x2="1493.68" y2="415.592" gradientUnits="userSpaceOnUse">
<stop stop-color="#4DC5FF"/>
<stop offset="0.17" stop-color="#4DCCEA"/>
<stop offset="0.53" stop-color="#4DE1B4"/>
<stop offset="1" stop-color="#4DFF65"/>
</linearGradient>
<linearGradient id="paint28_linear_398_390" x1="-1188.84" y1="412.048" x2="1496.98" y2="412.048" gradientUnits="userSpaceOnUse">
<stop stop-color="#4DC5FF"/>
<stop offset="0.17" stop-color="#4DCCEA"/>
<stop offset="0.53" stop-color="#4DE1B4"/>
<stop offset="1" stop-color="#4DFF65"/>
</linearGradient>
<linearGradient id="paint29_linear_398_390" x1="-1187.77" y1="408.524" x2="1500.27" y2="408.524" gradientUnits="userSpaceOnUse">
<stop stop-color="#4DC5FF"/>
<stop offset="0.17" stop-color="#4DCCEA"/>
<stop offset="0.53" stop-color="#4DE1B4"/>
<stop offset="1" stop-color="#4DFF65"/>
</linearGradient>
<linearGradient id="paint30_linear_398_390" x1="-1186.72" y1="405.001" x2="1503.59" y2="405.001" gradientUnits="userSpaceOnUse">
<stop stop-color="#4DC5FF"/>
<stop offset="0.17" stop-color="#4DCCEA"/>
<stop offset="0.53" stop-color="#4DE1B4"/>
<stop offset="1" stop-color="#4DFF65"/>
</linearGradient>
<linearGradient id="paint31_linear_398_390" x1="-1185.65" y1="401.477" x2="1506.89" y2="401.477" gradientUnits="userSpaceOnUse">
<stop stop-color="#4DC5FF"/>
<stop offset="0.17" stop-color="#4DCCEA"/>
<stop offset="0.53" stop-color="#4DE1B4"/>
<stop offset="1" stop-color="#4DFF65"/>
</linearGradient>
<linearGradient id="paint32_linear_398_390" x1="-1184.58" y1="397.954" x2="1510.19" y2="397.954" gradientUnits="userSpaceOnUse">
<stop stop-color="#4DC5FF"/>
<stop offset="0.17" stop-color="#4DCCEA"/>
<stop offset="0.53" stop-color="#4DE1B4"/>
<stop offset="1" stop-color="#4DFF65"/>
</linearGradient>
<linearGradient id="paint33_linear_398_390" x1="-1183.54" y1="394.41" x2="1513.48" y2="394.41" gradientUnits="userSpaceOnUse">
<stop stop-color="#4DC5FF"/>
<stop offset="0.17" stop-color="#4DCCEA"/>
<stop offset="0.53" stop-color="#4DE1B4"/>
<stop offset="1" stop-color="#4DFF65"/>
</linearGradient>
<linearGradient id="paint34_linear_398_390" x1="-1182.47" y1="390.886" x2="1516.78" y2="390.886" gradientUnits="userSpaceOnUse">
<stop stop-color="#FFF48B"/>
<stop offset="0.17" stop-color="#4DCCEA"/>
<stop offset="0.53" stop-color="#4DE1B4"/>
<stop offset="1" stop-color="#4DFF65"/>
</linearGradient>
<linearGradient id="paint35_linear_398_390" x1="-1181.4" y1="387.363" x2="1520.1" y2="387.363" gradientUnits="userSpaceOnUse">
<stop stop-color="#FFF48B"/>
<stop offset="0.53" stop-color="#4DE1B4"/>
<stop offset="1" stop-color="#4DFF65"/>
</linearGradient>
<linearGradient id="paint36_linear_398_390" x1="-1180.32" y1="383.84" x2="1523.4" y2="383.84" gradientUnits="userSpaceOnUse">
<stop stop-color="#FFF48B"/>
<stop offset="0.53" stop-color="#4DE1B4"/>
<stop offset="1" stop-color="#4DFF65"/>
</linearGradient>
<linearGradient id="paint37_linear_398_390" x1="-1179.28" y1="380.316" x2="1526.7" y2="380.316" gradientUnits="userSpaceOnUse">
<stop stop-color="#FFF48B"/>
<stop offset="0.53" stop-color="#4DE1B4"/>
<stop offset="1" stop-color="#4DFF65"/>
</linearGradient>
<linearGradient id="paint38_linear_398_390" x1="-1178.21" y1="376.771" x2="1529.99" y2="376.771" gradientUnits="userSpaceOnUse">
<stop stop-color="#4DC5FF"/>
<stop offset="0.0001" stop-color="#FFF48B"/>
<stop offset="0.53" stop-color="#4DE1B4"/>
<stop offset="1" stop-color="#4DFF65"/>
</linearGradient>
<linearGradient id="paint39_linear_398_390" x1="-1177.13" y1="373.248" x2="1533.29" y2="373.248" gradientUnits="userSpaceOnUse">
<stop stop-color="#FFF48B"/>
<stop offset="0.53" stop-color="#4DE1B4"/>
<stop offset="1" stop-color="#4DFF65"/>
</linearGradient>
<linearGradient id="paint40_linear_398_390" x1="-1176.09" y1="369.725" x2="1536.61" y2="369.725" gradientUnits="userSpaceOnUse">
<stop stop-color="#FFEE43"/>
<stop offset="0.17" stop-color="#4DCCEA"/>
<stop offset="0.53" stop-color="#4DE1B4"/>
<stop offset="1" stop-color="#4DFF65"/>
</linearGradient>
</defs>
</svg>
